<?xml version="1.0" encoding="UTF-8"?>
<svg xmlns="http://www.w3.org/2000/svg" xmlns:xlink="http://www.w3.org/1999/xlink" width="20px" height="20px" viewBox="0 0 20 20" version="1.1">
<g id="surface1">
<path style=" stroke:none;fill-rule:nonzero;fill:rgb(100%,100%,100%);fill-opacity:1;" d="M 10.113281 14.636719 C 9.976562 14.617188 9.835938 14.617188 9.703125 14.636719 C 9.15625 14.714844 8.714844 15.125 8.585938 15.6875 C 8.507812 16 8.539062 16.335938 8.675781 16.632812 L 9.90625 19.285156 L 11.132812 16.632812 C 11.265625 16.332031 11.300781 16 11.222656 15.6875 C 11.09375 15.125 10.65625 14.714844 10.113281 14.636719 Z M 14.355469 11.820312 C 14.257812 12.859375 14.085938 13.988281 13.835938 15.207031 L 16.777344 16.1875 Z M 3.222656 16.1875 L 6.132812 15.21875 C 5.882812 14.007812 5.71875 12.886719 5.628906 11.851562 Z M 3.222656 16.1875 "/>
<path style=" stroke:none;fill-rule:nonzero;fill:rgb(100%,100%,100%);fill-opacity:1;" d="M 10.359375 0.832031 L 10.167969 0.714844 L 9.964844 0.824219 C 9.738281 0.957031 4.367188 4.1875 7.054688 15.859375 L 7.121094 16.160156 L 7.785156 16.160156 C 7.769531 15.941406 7.789062 15.71875 7.839844 15.503906 C 8.039062 14.636719 8.730469 13.996094 9.597656 13.875 C 9.804688 13.847656 10.015625 13.847656 10.222656 13.875 C 11.082031 13.996094 11.769531 14.640625 11.972656 15.511719 C 12.023438 15.722656 12.039062 15.941406 12.023438 16.160156 L 12.84375 16.160156 L 12.910156 15.859375 C 15.597656 4.195312 10.574219 0.964844 10.359375 0.832031 Z M 11.683594 6.785156 C 11.683594 7.714844 10.929688 8.46875 10 8.46875 C 9.074219 8.46875 8.320312 7.714844 8.320312 6.785156 C 8.320312 5.859375 9.074219 5.105469 10 5.105469 C 10.929688 5.105469 11.683594 5.859375 11.683594 6.785156 Z M 11.683594 6.785156 "/>
</g>
</svg>
